 http://img837.imageshack.us/img837/7564/l17927948e5c34f9.jpg

Country.......: USA
Genre.........: Fantasy
Date release..: 10.05.2011 [World]
Director......: Christopher Ray
Writers.......: Eric Forsberg, Erik Estenberg
Duration......: 88 min.
More..........: http://www.imdb.com/title/tt1792794
Trailer.......:

Pilot :
The action begins when the demon god Loki will be freed from Walhalii and escapes into our world, stealing a powerful hammer belongs to Thor. The hero starts in pursuit of Loki, trying to stop him before he destroys Los Angeles.

Cats :
Richard Grieco   	 ...  	Loki
Patricia Velasquez 	... 	Jarnsaxa
Kevin Nash 	... 	Odin
Cody Deal 	... 	Thor
Gerald Webb 	... 	Street punk
Jess Allen 	... 	Baldir
Chris Ivan Cevic 	... 	Himdall
Gina Dorman 	... 	Girl in alley
Leslea Fisher 	... 	Blonde Norn
Nicole Fox 	... 	Redhead Norn
James Green 	... 	Viking Archer
Lauren Halperin 	... 	Brunette Norn
Ronald James Hoff Jr 	... 	Villager | Produce Patron
Barrett Perlman 	... 	Produce Vendor
Roddy Schaef 	... 	Hrathgar 

Data Technical :
!!! SAMPLE !!!
Audio.....: English
Subtitles.: None
Format                           : AVI
Format/Info                      : Audio Video Interleave
File size                        : 701 MiB
Duration                         : 1h 28mn
Overall bit rate                 : 1 110 Kbps
Writing application              : Nandub v1.0rc2
Writing library                  : Nandub build 1853/release
Video
ID                               : 0
Format                           : MPEG-4 Visual
Format profile                   : Advanced Simple@L5
Format settings, BVOP            : Yes
Format settings, QPel            : No
Format settings, GMC             : No warppoints
Format settings, Matrix          : Default (MPEG)
Codec ID                         : XVID
Codec ID/Hint                    : XviD
Duration                         : 1h 28mn
Bit rate                         : 966 Kbps
Width                            : 640 pixels
Height                           : 272 pixels
Display aspect ratio             : 2.35:1
Frame rate                       : 23.976 fps
Color space                      : YUV
Chroma subsampling               : 4:2:0
Bit depth                        : 8 bits
Scan type                        : Progressive
Bits/(Pixel*Frame)               : 0.231
Stream size                      : 610 MiB (87%)
Writing library                  : XviD 63
Audio
ID                               : 1
Format                           : MPEG Audio
Format version                   : Version 1
Format profile                   : Layer 3
Mode                             : Joint stereo
Mode extension                   : MS Stereo
Codec ID                         : 55
Codec ID/Hint                    : MP3
Duration                         : 1h 28mn
Bit rate mode                    : Variable
Bit rate                         : 128 Kbps
Channel(s)                       : 2 channels
Sampling rate                    : 48.0 KHz
Stream size                      : 83.1 MiB (12%)
Alignment                        : Aligned on interleaves
Interleave, duration             : 24 ms (0.58 video frame)
Interleave, preload duration     : 484 ms
Writing library                  : LAME3.90.
Encoding settings                : -m j -V 4 -q 2 -lowpass 17.6 --abr 128

Screen : 
http://img98.imageshack.us/img98/8021/almightythor2011s1.jpg 
http://img7.imageshack.us/img7/8255/almightythor2011s2.jpg 
http://img707.imageshack.us/img707/2599/almightythor2011s3.jpg 
http://img36.imageshack.us/img36/4811/almightythor2011s4.jpg 
http://img710.imageshack.us/img710/6351/almightythor2011s5.jpg